<?xml version="1.0" standalone="no"?>
<!DOCTYPE svg PUBLIC "-//W3C//DTD SVG 20010904//EN"
 "http://www.w3.org/TR/2001/REC-SVG-20010904/DTD/svg10.dtd">
<svg version="1.0" xmlns="http://www.w3.org/2000/svg"
 width="1376.000000pt" height="1376.000000pt" viewBox="0 0 1376.000000 1376.000000"
 preserveAspectRatio="xMidYMid meet">
<metadata>
Created by potrace 1.11, written by Peter Selinger 2001-2013
</metadata>
<g transform="translate(0.000000,1376.000000) scale(0.100000,-0.100000)"
fill="#000000" stroke="none">
<path d="M6102 12587 c-6 -7 -10 -28 -10 -47 2 -46 -10 -162 -22 -225 -5 -27
-19 -106 -31 -175 -11 -69 -23 -128 -25 -132 -2 -3 -9 -30 -15 -60 -15 -75
-38 -177 -49 -220 -18 -69 -29 -113 -39 -153 -5 -22 -15 -58 -21 -80 -6 -22
-13 -49 -14 -60 -1 -11 -7 -31 -13 -45 -6 -14 -21 -52 -33 -85 -12 -33 -29
-74 -36 -92 -8 -17 -14 -35 -14 -39 0 -4 -9 -26 -19 -48 -10 -23 -33 -70 -49
-106 -60 -129 -93 -196 -110 -225 -10 -16 -30 -51 -45 -77 -14 -26 -33 -55
-42 -65 -9 -10 -63 -88 -120 -175 -121 -184 -176 -258 -321 -433 -107 -128
-125 -149 -274 -309 -78 -85 -282 -289 -460 -460 -444 -426 -654 -643 -780
-805 -68 -88 -231 -329 -278 -411 -90 -159 -160 -287 -212 -390 -89 -175 -217
-525 -273 -745 -57 -224 -83 -368 -116 -645 -30 -246 -17 -711 28 -1000 29
-186 73 -403 101 -490 4 -14 13 -45 20 -70 7 -25 16 -54 20 -65 4 -11 13 -38
19 -60 7 -22 16 -49 21 -60 5 -11 23 -60 40 -109 17 -49 38 -105 46 -125 9
-20 20 -45 24 -56 16 -38 170 -350 197 -400 137 -244 344 -541 498 -714 217
-244 516 -521 705 -654 91 -64 373 -248 410 -268 25 -13 47 -27 50 -30 5 -6
338 -170 405 -199 22 -10 56 -25 75 -33 40 -18 93 -37 200 -73 41 -14 84 -29
95 -33 11 -5 40 -14 65 -21 25 -7 54 -16 65 -20 11 -4 38 -12 60 -18 22 -6 58
-15 80 -21 308 -80 749 -135 1080 -135 193 1 470 23 665 53 187 29 206 32 340
67 36 9 80 19 98 21 18 3 35 9 38 14 3 5 15 9 26 9 23 0 81 17 110 31 10 5 27
9 37 9 11 0 23 5 26 10 3 6 13 10 22 10 13 0 169 54 231 80 25 11 62 26 95 39
30 11 424 206 462 229 45 26 186 113 214 131 13 9 34 23 46 31 62 41 244 172
274 197 18 15 65 55 105 87 178 147 431 402 561 565 28 34 58 72 69 84 36 42
163 219 191 265 6 10 13 19 16 22 6 5 102 160 142 230 55 96 132 245 176 343
11 26 30 66 40 90 37 81 81 197 127 334 104 310 154 554 194 951 13 133 13
585 0 710 -19 174 -31 265 -51 372 -10 58 -25 143 -34 189 -8 45 -29 140 -46
210 -89 365 -182 636 -370 1081 -35 82 -209 431 -269 540 -184 333 -498 815
-598 920 -24 25 -52 60 -64 78 -11 18 -34 50 -51 71 -18 21 -45 56 -62 77 -16
21 -46 56 -66 78 -19 23 -72 87 -117 143 -45 56 -89 111 -99 121 -10 10 -52
56 -93 102 -41 46 -83 91 -92 99 -10 9 -18 18 -18 22 0 3 -74 82 -165 175 -91
93 -165 172 -165 177 0 4 -4 7 -8 7 -5 0 -40 30 -78 68 -104 101 -221 210
-294 273 -36 31 -87 77 -115 103 -27 25 -56 45 -62 46 -7 0 -13 6 -13 13 -1 6
-37 39 -82 72 -44 33 -95 74 -113 91 -18 17 -52 45 -76 62 -24 17 -56 41 -70
54 -15 13 -70 55 -124 93 -53 39 -105 77 -115 85 -10 8 -41 30 -67 48 -26 19
-85 60 -131 93 -45 32 -87 59 -92 59 -6 0 -10 5 -10 10 0 6 -4 10 -10 10 -8 0
-68 36 -95 58 -5 4 -28 19 -50 32 -22 13 -46 30 -54 38 -8 8 -24 18 -35 23
-12 5 -37 19 -56 31 -19 12 -52 31 -72 42 -20 12 -69 41 -110 66 -40 25 -95
56 -123 71 -27 14 -72 38 -100 54 -70 39 -184 95 -195 95 -6 0 -10 4 -10 9 0
5 -19 18 -42 29 -24 11 -91 43 -150 71 -59 28 -114 51 -121 51 -8 0 -20 7 -27
15 -7 8 -21 15 -31 15 -10 0 -21 5 -24 10 -9 14 -61 12 -73 -3z m388 -217 c12
-8 11 -10 -7 -10 -13 0 -23 5 -23 10 0 13 11 13 30 0z m840 -474 c0 -3 -4 -8
-10 -11 -5 -3 -10 -1 -10 4 0 6 5 11 10 11 6 0 10 -2 10 -4z m-1703 -1158 c-3
-8 -6 -5 -6 6 -1 11 2 17 5 13 3 -3 4 -12 1 -19z m336 -75 c-7 -2 -19 -2 -25
0 -7 3 -2 5 12 5 14 0 19 -2 13 -5z m300 -40 c-7 -2 -21 -2 -30 0 -10 3 -4 5
12 5 17 0 24 -2 18 -5z m94 -19 c-3 -3 -12 -4 -19 -1 -8 3 -5 6 6 6 11 1 17
-2 13 -5z m60 -20 c-3 -3 -12 -4 -19 -1 -8 3 -5 6 6 6 11 1 17 -2 13 -5z
m1063 -514 c0 -5 -2 -10 -4 -10 -3 0 -8 5 -11 10 -3 6 -1 10 4 10 6 0 11 -4
11 -10z m393 -187 c-7 -2 -19 -2 -25 0 -7 3 -2 5 12 5 14 0 19 -2 13 -5z m142
-53 c3 -5 2 -10 -4 -10 -5 0 -13 5 -16 10 -3 6 -2 10 4 10 5 0 13 -4 16 -10z
m1280 -270 c3 -5 -3 -10 -14 -10 -12 0 -21 5 -21 10 0 6 6 10 14 10 8 0 18 -4
21 -10z m552 4 c-3 -3 -12 -4 -19 -1 -8 3 -5 6 6 6 11 1 17 -2 13 -5z"/>
</g>
</svg>
